<svg xmlns="http://www.w3.org/2000/svg" width="400" height="200" viewBox="0 0 400 200">
    <style>text{font-family:'Segoe UI',Ubuntu,'Helvetica Neue',Arial,sans-serif}</style>
    <rect x="1" y="1" width="398" height="198" rx="5" fill="#2e3440" stroke="#eceff4" stroke-width="1"/>
    <text x="30" y="40" font-size="21" fill="#eceff4">Commits by Repository Language</text>
    
        <rect x="40" y="58" width="14" height="14" fill="#3178c6" stroke="#2e3440"/>
        <text x="58" y="70" font-size="13" fill="#e5e9f0">TypeScript</text>
        <text x="158" y="70" text-anchor="end" font-size="11" fill="#d8dee9">3,737</text>
        <text x="205" y="70" text-anchor="end" font-size="10" fill="#8fbcbb">64.8%</text>
        <rect x="40" y="80" width="14" height="14" fill="#e34c26" stroke="#2e3440"/>
        <text x="58" y="92" font-size="13" fill="#e5e9f0">EJS</text>
        <text x="158" y="92" text-anchor="end" font-size="11" fill="#d8dee9">589</text>
        <text x="205" y="92" text-anchor="end" font-size="10" fill="#8fbcbb">10.2%</text>
        <rect x="40" y="102" width="14" height="14" fill="#41b883" stroke="#2e3440"/>
        <text x="58" y="114" font-size="13" fill="#e5e9f0">HTML</text>
        <text x="158" y="114" text-anchor="end" font-size="11" fill="#d8dee9">444</text>
        <text x="205" y="114" text-anchor="end" font-size="10" fill="#8fbcbb">7.7%</text>
        <rect x="40" y="124" width="14" height="14" fill="#f1e05a" stroke="#2e3440"/>
        <text x="58" y="136" font-size="13" fill="#e5e9f0">Vue</text>
        <text x="158" y="136" text-anchor="end" font-size="11" fill="#d8dee9">419</text>
        <text x="205" y="136" text-anchor="end" font-size="10" fill="#8fbcbb">7.3%</text>
        <rect x="40" y="146" width="14" height="14" fill="#8fbcbb" stroke="#2e3440"/>
        <text x="58" y="158" font-size="13" fill="#e5e9f0">JavaScript</text>
        <text x="158" y="158" text-anchor="end" font-size="11" fill="#d8dee9">134</text>
        <text x="205" y="158" text-anchor="end" font-size="10" fill="#8fbcbb">2.3%</text>
        <rect x="40" y="168" width="14" height="14" fill="#b48ead" stroke="#2e3440"/>
        <text x="58" y="180" font-size="13" fill="#e5e9f0">Other</text>
        <text x="158" y="180" text-anchor="end" font-size="11" fill="#d8dee9">446</text>
        <text x="205" y="180" text-anchor="end" font-size="10" fill="#8fbcbb">7.7%</text>
    <g transform="translate(60 0)">
    <path
      d="
        M 191.957 155.943
        A 60 60 0 1 0 240.000 60.000
        L 240.000 85.000
        A 35 35 0 1 1 211.975 140.967
        Z
      "
      fill="#3178c6"
      stroke="#2e3440"
      stroke-width="2"
    />
    <path
      d="
        M 180.000 120.049
        A 60 60 0 0 0 191.957 155.943
        L 211.975 140.967
        A 35 35 0 0 1 205.000 120.029
        Z
      "
      fill="#e34c26"
      stroke="#2e3440"
      stroke-width="2"
    />
    <path
      d="
        M 186.857 92.147
        A 60 60 0 0 0 180.000 120.049
        L 205.000 120.029
        A 35 35 0 0 1 209.000 103.752
        Z
      "
      fill="#41b883"
      stroke="#2e3440"
      stroke-width="2"
    />
    <path
      d="
        M 204.569 71.578
        A 60 60 0 0 0 186.857 92.147
        L 209.000 103.752
        A 35 35 0 0 1 219.332 91.754
        Z
      "
      fill="#f1e05a"
      stroke="#2e3440"
      stroke-width="2"
    />
    <path
      d="
        M 211.988 66.941
        A 60 60 0 0 0 204.569 71.578
        L 219.332 91.754
        A 35 35 0 0 1 223.659 89.049
        Z
      "
      fill="#8fbcbb"
      stroke="#2e3440"
      stroke-width="2"
    />
    <path
      d="
        M 240.000 60.000
        A 60 60 0 0 0 211.988 66.941
        L 223.659 89.049
        A 35 35 0 0 1 240.000 85.000
        Z
      "
      fill="#b48ead"
      stroke="#2e3440"
      stroke-width="2"
    /></g>
    <text x="300" y="117" text-anchor="middle" font-size="16" font-weight="700" fill="#eceff4">5.77K</text>
    <text x="300" y="135" text-anchor="middle" font-size="10" fill="#81a1c1">commits</text>
  </svg>