<svg xmlns="http://www.w3.org/2000/svg" width="400" height="200" viewBox="0 0 400 200">
    <style>text{font-family:'Segoe UI',Ubuntu,'Helvetica Neue',Arial,sans-serif}</style>
    <rect x="1" y="1" width="398" height="198" rx="5" fill="#2e3440" stroke="#eceff4" stroke-width="1"/>
    <text x="30" y="40" font-size="21" fill="#eceff4">Commits by Repository Language</text>
    
        <rect x="40" y="58" width="14" height="14" fill="#3178c6" stroke="#2e3440"/>
        <text x="58" y="70" font-size="13" fill="#e5e9f0">TypeScript</text>
        <text x="158" y="70" text-anchor="end" font-size="11" fill="#d8dee9">3,716</text>
        <text x="205" y="70" text-anchor="end" font-size="10" fill="#8fbcbb">65.6%</text>
        <rect x="40" y="80" width="14" height="14" fill="#e34c26" stroke="#2e3440"/>
        <text x="58" y="92" font-size="13" fill="#e5e9f0">EJS</text>
        <text x="158" y="92" text-anchor="end" font-size="11" fill="#d8dee9">525</text>
        <text x="205" y="92" text-anchor="end" font-size="10" fill="#8fbcbb">9.3%</text>
        <rect x="40" y="102" width="14" height="14" fill="#41b883" stroke="#2e3440"/>
        <text x="58" y="114" font-size="13" fill="#e5e9f0">HTML</text>
        <text x="158" y="114" text-anchor="end" font-size="11" fill="#d8dee9">444</text>
        <text x="205" y="114" text-anchor="end" font-size="10" fill="#8fbcbb">7.8%</text>
        <rect x="40" y="124" width="14" height="14" fill="#f1e05a" stroke="#2e3440"/>
        <text x="58" y="136" font-size="13" fill="#e5e9f0">Vue</text>
        <text x="158" y="136" text-anchor="end" font-size="11" fill="#d8dee9">405</text>
        <text x="205" y="136" text-anchor="end" font-size="10" fill="#8fbcbb">7.1%</text>
        <rect x="40" y="146" width="14" height="14" fill="#8fbcbb" stroke="#2e3440"/>
        <text x="58" y="158" font-size="13" fill="#e5e9f0">JavaScript</text>
        <text x="158" y="158" text-anchor="end" font-size="11" fill="#d8dee9">134</text>
        <text x="205" y="158" text-anchor="end" font-size="10" fill="#8fbcbb">2.4%</text>
        <rect x="40" y="168" width="14" height="14" fill="#b48ead" stroke="#2e3440"/>
        <text x="58" y="180" font-size="13" fill="#e5e9f0">Other</text>
        <text x="158" y="180" text-anchor="end" font-size="11" fill="#d8dee9">444</text>
        <text x="205" y="180" text-anchor="end" font-size="10" fill="#8fbcbb">7.8%</text>
    <g transform="translate(60 0)">
    <path
      d="
        M 190.246 153.534
        A 60 60 0 1 0 240.000 60.000
        L 240.000 85.000
        A 35 35 0 1 1 210.977 139.562
        Z
      "
      fill="#3178c6"
      stroke="#2e3440"
      stroke-width="2"
    />
    <path
      d="
        M 180.004 120.665
        A 60 60 0 0 0 190.246 153.534
        L 210.977 139.562
        A 35 35 0 0 1 205.002 120.388
        Z
      "
      fill="#e34c26"
      stroke="#2e3440"
      stroke-width="2"
    />
    <path
      d="
        M 186.811 92.234
        A 60 60 0 0 0 180.004 120.665
        L 205.002 120.388
        A 35 35 0 0 1 208.973 103.803
        Z
      "
      fill="#41b883"
      stroke="#2e3440"
      stroke-width="2"
    />
    <path
      d="
        M 204.133 71.901
        A 60 60 0 0 0 186.811 92.234
        L 208.973 103.803
        A 35 35 0 0 1 219.078 91.942
        Z
      "
      fill="#f1e05a"
      stroke="#2e3440"
      stroke-width="2"
    />
    <path
      d="
        M 211.647 67.122
        A 60 60 0 0 0 204.133 71.901
        L 219.078 91.942
        A 35 35 0 0 1 223.460 89.155
        Z
      "
      fill="#8fbcbb"
      stroke="#2e3440"
      stroke-width="2"
    />
    <path
      d="
        M 240.000 60.000
        A 60 60 0 0 0 211.647 67.122
        L 223.460 89.155
        A 35 35 0 0 1 240.000 85.000
        Z
      "
      fill="#b48ead"
      stroke="#2e3440"
      stroke-width="2"
    /></g>
    <text x="300" y="117" text-anchor="middle" font-size="16" font-weight="700" fill="#eceff4">5.67K</text>
    <text x="300" y="135" text-anchor="middle" font-size="10" fill="#81a1c1">commits</text>
  </svg>